<svg xmlns="http://www.w3.org/2000/svg" xmlns:xlink="http://www.w3.org/1999/xlink" width="1440" height="850" viewBox="0 0 1440 850"><defs><clipPath id="a"><rect width="1440" height="850" fill="#fff" stroke="#707070" stroke-width="1"/></clipPath><linearGradient id="b" x1="0.5" y1="0.5" x2="0" y2="1" gradientUnits="objectBoundingBox"><stop offset="0" stop-color="#e816be"/><stop offset="1" stop-color="#6b3dc0"/></linearGradient><linearGradient id="c" x1="0.778" y1="1" x2="0" gradientUnits="objectBoundingBox"><stop offset="0" stop-color="#2471b7" stop-opacity="0.2"/><stop offset="1" stop-color="#2494fb" stop-opacity="0.2"/></linearGradient><linearGradient id="d" x2="2.482" y2="3.126" gradientUnits="objectBoundingBox"><stop offset="0" stop-color="#fff" stop-opacity="0.502"/><stop offset="1" stop-opacity="0.502"/></linearGradient><linearGradient id="g" x1="0.5" y1="-0.158" x2="0.5" y2="0.548" gradientUnits="objectBoundingBox"><stop offset="0" stop-color="#fff" stop-opacity="0.102"/><stop offset="1" stop-color="#fff" stop-opacity="0"/></linearGradient><linearGradient id="h" x1="0.462" y1="-0.643" x2="0.533" y2="0.69" xlink:href="#g"/></defs><g clip-path="url(#a)"><g transform="translate(98 -8)"><g transform="translate(307 8)"><rect width="1035" height="850" fill="url(#b)"/><rect width="1035" height="850" fill="#1e2a32" opacity="0.919"/></g><g transform="translate(1777 256)" opacity="0.052"><g opacity="0.298"><path d="M-1717,0V882L0,1058Z" fill="url(#c)"/><path d="M-1717,0V882L0,1058Z" fill="url(#d)"/><path d="M-1717,0V882L0,1058Z" fill="none"/><path d="M-1717,0V882L0,1058Z" fill="#e2e5e9"/></g><path d="M-1530,0V882H0Z" transform="translate(-187 153)" fill="url(#c)"/><path d="M-1530,0V882H0Z" transform="translate(-187 153)" fill="url(#d)"/><path d="M-1530,0V882H0Z" transform="translate(-187 153)" fill="none"/><path d="M-1530,0V882H0Z" transform="translate(-187 153)" fill="#e2e5e9"/><path d="M-1530,0V882H0Z" transform="translate(-187 153)" fill="none"/></g><g opacity="0.4"><path d="M0,41.071C-215.47-34.565-299.793,3.137-621.185,82.3Q-942.578,161.471-1380,7.465l.462,272.535H0Z" transform="translate(0 280) rotate(-180)" fill="url(#g)"/><path d="M0,28.531Q220.692,6.355,621.185,64.671T1380,0l-.462,261.935H0Z" transform="translate(1380 261.935) rotate(180)" fill="url(#h)"/></g></g></g></svg>