<svg xmlns="http://www.w3.org/2000/svg" xmlns:xlink="http://www.w3.org/1999/xlink" width="698" height="850" viewBox="0 0 698 850"><defs><clipPath id="a"><rect width="698" height="850" fill="#fff" stroke="#707070" stroke-width="1"/></clipPath><linearGradient id="b" x1="0.5" y1="0.062" x2="0.5" y2="0.749" gradientUnits="objectBoundingBox"><stop offset="0" stop-color="#463862"/><stop offset="1" stop-color="#2d293d"/></linearGradient><filter id="c" x="-539" y="-76" width="1228.76" height="1050.01" filterUnits="userSpaceOnUse"><feOffset dy="-16" input="SourceAlpha"/><feGaussianBlur stdDeviation="20" result="d"/><feFlood flood-opacity="0.251"/><feComposite operator="in" in2="d"/><feComposite in="SourceGraphic"/></filter></defs><g clip-path="url(#a)"><g transform="translate(701.5 -0.5) rotate(90)"><path d="M-14.99,32.9s-32.518,68.533-245.419,74.661C-466.924,113.5-513.781,54.749-661.817,19.614-851.475-25.4-945,32.9-945,32.9V227H-14.99Z" transform="translate(945.5 0.5)" fill="url(#b)"/><g transform="matrix(0, -1, 1, 0, 0.5, 701.5)" filter="url(#c)"><path d="M0,64.036s61.971,74.686,245.419,74.686c219.586,0,319.878-82.659,473.687-125.165,155.665-43.019,210.9,50.479,210.9,50.479V1011.1s-74.3-39.827-278.5,0c-280.886,54.785-288.687,93.786-449.57,99.9C76.27,1111,0,1065.885,0,1065.885Z" transform="translate(632) rotate(90)" fill="#f8f8fb"/></g></g></g></svg>