<svg xmlns="http://www.w3.org/2000/svg" xmlns:xlink="http://www.w3.org/1999/xlink" width="227" height="227" viewBox="0 0 227 227"><defs><linearGradient id="a" y1="1" x2="0.5" gradientUnits="objectBoundingBox"><stop offset="0" stop-color="#ed7064"/><stop offset="1" stop-color="#f7b972"/></linearGradient><clipPath id="b"><path d="M0,113.5A113.5,113.5,0,1,1,113.5,227,113.5,113.5,0,0,1,0,113.5Z" fill="none"/></clipPath><linearGradient id="c" x1="0.768" y1="1" x2="0.532" gradientUnits="objectBoundingBox"><stop offset="0" stop-color="#fff"/><stop offset="1" stop-color="#fff" stop-opacity="0"/></linearGradient><linearGradient id="d" x1="0.976" y1="0.5" x2="0.425" y2="0.5" xlink:href="#c"/></defs><path d="M0,113.5A113.5,113.5,0,0,1,113.5,0h0A113.5,113.5,0,0,1,227,113.5h0A113.5,113.5,0,0,1,113.5,227h0A113.5,113.5,0,0,1,0,113.5Z" fill="url(#a)"/><path d="M0,113.5A113.5,113.5,0,0,1,113.5,0h0A113.5,113.5,0,0,1,227,113.5h0A113.5,113.5,0,0,1,113.5,227h0A113.5,113.5,0,0,1,0,113.5Z" fill="none"/><g clip-path="url(#b)"><path d="M0,0,326.419,17.419l4.453,83.453L4.453,83.453Z" transform="translate(-21.142 199.496) rotate(-45)" opacity="0.1" fill="url(#c)"/><path d="M1.578-17.419,328,0l-1.578-29.578L0-47Z" transform="translate(-9.941 212.929) rotate(-45)" opacity="0.16" fill="url(#d)"/></g></svg>